<svg xmlns="http://www.w3.org/2000/svg" width="877" height="233" viewBox="0 0 877 233" version="1.1"><path d="M 55 48.339 C 55 49.076, 53.875 50.192, 52.500 50.818 C 51.125 51.445, 50 52.369, 50 52.872 C 50 53.375, 49.365 54.030, 48.588 54.328 C 47.514 54.740, 47.241 54.054, 47.447 51.463 C 47.598 49.562, 47.308 48.310, 46.790 48.630 C 46.281 48.945, 46.105 49.832, 46.400 50.601 C 47.067 52.337, 45.868 52.411, 43.977 50.750 C 43.194 50.063, 43.329 50.435, 44.277 51.579 C 46.137 53.823, 46.633 56.509, 45 55.500 C 44.450 55.160, 44 55.364, 44 55.953 C 44 57.454, 52.237 56.325, 53.500 54.651 C 54.050 53.921, 54.995 53.491, 55.600 53.696 C 56.205 53.900, 57.330 53.264, 58.100 52.283 C 59.345 50.698, 59.323 50.638, 57.908 51.741 C 56.339 52.964, 55 52.519, 55 50.774 C 55 50.284, 55.520 50.203, 56.155 50.595 C 56.870 51.038, 57.038 50.870, 56.595 50.155 C 56.203 49.520, 56.385 49, 57 49 C 57.615 49, 57.840 48.550, 57.500 48 C 56.606 46.554, 55 46.772, 55 48.339 M 80.882 59.583 C 80.772 65.050, 80.473 70.207, 80.138 72.405 C 80.062 72.903, 79.077 72.474, 77.948 71.453 C 75.912 69.610, 75.904 69.618, 76.969 72.419 C 77.718 74.389, 77.726 75.625, 76.996 76.505 C 76.236 77.420, 76.392 77.937, 77.565 78.386 C 78.453 78.727, 79.585 78.757, 80.079 78.451 C 80.573 78.146, 80.715 78.707, 80.395 79.698 C 79.980 80.986, 80.436 80.786, 81.994 79 C 83.193 77.625, 83.840 77.132, 83.432 77.905 C 82.942 78.833, 83.084 79.066, 83.849 78.593 C 84.486 78.200, 84.846 76.893, 84.649 75.689 C 84.453 74.485, 84.484 74.063, 84.719 74.750 C 84.954 75.438, 85.612 76, 86.180 76 C 86.749 76, 86.931 75.261, 86.584 74.359 C 86.088 73.067, 86.243 72.957, 87.309 73.842 C 88.323 74.683, 89.131 74.625, 90.521 73.608 C 92.248 72.345, 92.182 72.250, 89.576 72.250 C 88.034 72.250, 86.391 71.633, 85.926 70.880 C 85.238 69.768, 84.826 69.856, 83.734 71.349 C 82.566 72.946, 82.353 71.957, 82.119 63.853 C 81.814 53.271, 81.060 50.670, 80.882 59.583 M 64.415 63.138 C 63.963 63.869, 64.124 64.041, 64.845 63.595 C 65.480 63.203, 66 63.284, 66 63.774 C 66 65.509, 64.664 65.968, 63.092 64.772 C 62.216 64.106, 62.563 64.755, 63.863 66.215 C 65.716 68.296, 66.503 68.613, 67.514 67.684 C 68.223 67.033, 68.397 66.350, 67.901 66.167 C 67.406 65.983, 67 65.222, 67 64.476 C 67 62.598, 65.294 61.716, 64.415 63.138 M 395.426 74.331 C 395.145 75.063, 395.047 89.454, 395.208 106.310 L 395.500 136.957 398.161 139.617 C 400.106 141.561, 402.152 142.404, 405.765 142.751 C 412.292 143.379, 415.005 141.897, 414.985 137.715 C 414.965 133.578, 414.085 132.284, 411 131.851 L 408.500 131.500 408.235 102.863 L 407.970 74.225 405.735 73.626 C 401.716 72.549, 395.959 72.943, 395.426 74.331 M 451.236 73.833 C 450.250 74.459, 450.031 81.986, 450.236 108.067 L 450.500 141.500 456.500 141.500 L 462.500 141.500 462.777 125.527 C 463.049 109.764, 463.088 109.518, 465.714 106.777 C 469.111 103.231, 474.165 102.970, 476.443 106.223 C 477.686 107.997, 478 111.506, 478 123.641 C 478 131.998, 478.273 139.548, 478.607 140.418 C 479.065 141.612, 480.654 142, 485.088 142 C 490.566 142, 491.005 141.826, 491.609 139.423 C 491.964 138.005, 492.049 129.568, 491.796 120.673 C 491.284 102.610, 489.966 98.120, 484.191 94.750 C 479.578 92.059, 471.157 92.404, 466.640 95.470 L 463 97.940 463 86.077 C 463 76.182, 462.738 74.113, 461.418 73.607 C 459.163 72.742, 452.731 72.884, 451.236 73.833 M 236.454 78.260 C 236.188 78.953, 236.090 93.465, 236.235 110.510 L 236.500 141.500 243 141.500 L 249.500 141.500 249.778 127.750 L 250.056 114 261.500 114 L 272.944 114 273.222 127.750 L 273.500 141.500 279.407 141.805 C 283.449 142.013, 285.582 141.697, 286.162 140.805 C 287.220 139.177, 286.195 78.799, 285.091 77.693 C 284.648 77.249, 281.859 77.024, 278.893 77.193 L 273.500 77.500 273.220 90.250 L 272.940 103 261.470 103 L 250 103 250 90.607 C 250 76.609, 250.233 77, 241.887 77 C 238.829 77, 236.752 77.482, 236.454 78.260 M 23.357 78.926 C 18.225 81.154, 17.998 82.501, 18.032 110.473 C 18.055 129.355, 18.398 136.936, 19.282 138.087 C 22.026 141.661, 24.546 142, 48.375 142 C 65.619 142, 72.080 142.321, 72.626 143.204 C 73.100 143.970, 70.004 147.551, 64.102 153.062 L 54.834 161.716 48.941 161.608 C 43.617 161.510, 42.748 161.799, 39.950 164.593 C 30.214 174.315, 40.871 189.772, 52.989 183.506 C 57.182 181.337, 59 178.168, 59.001 173.027 C 59.001 168.597, 59.203 168.313, 68.426 159.750 C 73.610 154.938, 78.335 151, 78.926 151 C 79.660 151, 80 158.267, 80 173.984 L 80 196.968 82.919 200.234 L 85.838 203.500 111.669 203.256 C 134.999 203.036, 137.740 202.833, 139.978 201.165 C 142.255 199.467, 144.415 193.749, 143.228 192.561 C 142.950 192.283, 141.400 193.168, 139.784 194.528 C 138.169 195.888, 136.180 197, 135.364 197 C 134.549 197, 120.382 183.387, 103.882 166.750 C 71.229 133.825, 69.361 131.372, 66.763 118 L 65.500 111.500 60.697 111.193 C 56.536 110.927, 55.428 111.295, 52.412 113.943 C 48.337 117.521, 45.286 117.800, 41.635 114.927 C 39.726 113.426, 39 111.932, 39 109.509 C 39 104.743, 39.836 103.136, 43.229 101.382 C 46.828 99.521, 49.861 100.134, 53.106 103.379 C 55.117 105.390, 56.432 105.773, 60.903 105.649 L 66.281 105.500 67.588 101.070 C 68.307 98.633, 68.691 96.309, 68.441 95.905 C 68.192 95.501, 68.407 95.020, 68.919 94.835 C 69.431 94.651, 69.996 93.880, 70.175 93.121 C 70.354 92.363, 71.737 90.350, 73.250 88.648 C 74.762 86.947, 76 84.953, 76 84.218 C 76 83.483, 76.453 83.162, 77.007 83.504 C 78.188 84.234, 79.579 81.246, 78.542 80.208 C 78.154 79.821, 77.309 80.177, 76.665 81.002 C 75.116 82.981, 73.333 83.242, 73.333 81.488 C 73.333 80.718, 73.821 80.365, 74.417 80.704 C 75.030 81.053, 75.138 80.926, 74.666 80.410 C 73.722 79.380, 72.040 79.274, 45 78.531 C 33.849 78.225, 24.582 78.394, 23.357 78.926 M 422.750 81.647 C 421.428 82.024, 420.971 83.291, 420.882 86.823 C 420.816 89.395, 420.801 91.790, 420.847 92.145 C 420.893 92.500, 419.347 93.087, 417.413 93.450 C 413.925 94.105, 413.898 94.151, 414.197 98.800 C 414.477 103.140, 414.724 103.528, 417.500 104.008 L 420.500 104.527 420.552 118.513 C 420.581 126.309, 421.087 133.607, 421.696 135 C 423.791 139.797, 427.581 142.301, 433.487 142.791 C 440.906 143.406, 445 141.688, 445 137.960 C 445 133.098, 444.082 132, 440.015 132 C 437.942 132, 435.801 131.438, 435.258 130.750 C 434.715 130.063, 433.978 123.763, 433.620 116.750 L 432.968 104 438.539 104 L 444.110 104 443.805 99.250 L 443.500 94.500 438.750 94.195 L 434 93.890 433.985 89.195 C 433.976 86.613, 433.625 83.959, 433.205 83.297 C 432.353 81.957, 425.467 80.870, 422.750 81.647 M 306.500 94.573 C 302.183 96.818, 299.109 99.927, 296.685 104.500 C 294.987 107.704, 294.559 110.297, 294.533 117.527 C 294.505 125.283, 294.860 127.252, 297.055 131.518 C 298.601 134.523, 301.298 137.669, 303.890 139.491 C 307.662 142.142, 309.141 142.537, 316.335 142.810 C 325.093 143.143, 334.455 140.812, 336.335 137.830 C 337.602 135.822, 336.356 131.074, 334.362 130.309 C 333.494 129.976, 330.430 130.445, 327.554 131.351 C 316.829 134.732, 310.126 132.635, 308.052 125.250 L 307.140 122 320.988 122 C 328.605 122, 335.548 121.727, 336.418 121.393 C 337.626 120.930, 338 119.316, 338 114.572 C 338 106.187, 334.190 98.443, 328.500 95.266 C 323.512 92.481, 311.264 92.095, 306.500 94.573 M 351.962 95.250 C 348.308 97.093, 347.445 98.058, 347.199 100.585 C 346.714 105.549, 348.991 106.683, 355.390 104.666 C 365.798 101.385, 372 103.377, 372 110 L 372 113 365.196 113 C 355.826 113, 348.569 116.535, 345.907 122.396 C 344.883 124.653, 344.034 127.755, 344.022 129.290 C 343.986 133.874, 347.500 139.535, 351.584 141.473 C 356.600 143.853, 365.881 143.203, 369.962 140.186 C 373.572 137.517, 373.640 137.514, 374.290 140 C 374.726 141.670, 375.654 142, 379.906 142 L 385 142 384.978 123.750 C 384.952 102.162, 383.963 98.552, 377.115 95.059 C 371.200 92.041, 358.128 92.141, 351.962 95.250 M 313.500 102.945 C 310.636 104.118, 308.240 107.103, 307.843 109.995 C 307.500 112.488, 307.509 112.491, 316.750 112.698 C 326.967 112.927, 327.398 112.604, 324.452 106.907 C 322.293 102.731, 317.903 101.143, 313.500 102.945 M 360.344 122.996 C 357.720 124.055, 356.271 129.416, 358.034 131.541 C 359.833 133.709, 366.273 133.360, 369.365 130.927 C 371.296 129.409, 372 127.939, 372 125.427 L 372 122 367.250 122.063 C 364.637 122.098, 361.530 122.518, 360.344 122.996" stroke="none" fill="#1a76b5" fill-rule="evenodd"/><path d="M 82.923 19.923 L 80 22.846 80.168 44.173 C 80.273 57.459, 80.586 63.238, 81 59.500 L 81.664 53.500 81.989 62 C 82.169 66.675, 82.277 71.175, 82.231 72 C 82.171 73.076, 82.562 72.936, 83.613 71.505 C 84.791 69.901, 85.245 69.779, 85.926 70.880 C 86.391 71.633, 88.034 72.250, 89.576 72.250 C 92.182 72.250, 92.248 72.345, 90.521 73.608 C 89.131 74.625, 88.323 74.683, 87.309 73.842 C 86.243 72.957, 86.088 73.067, 86.584 74.359 C 86.934 75.271, 86.723 76, 86.107 76 C 85.498 76, 85 75.250, 85 74.333 C 85 73.417, 84.734 72.933, 84.409 73.258 C 84.083 73.583, 84.108 74.763, 84.462 75.881 C 85.106 77.909, 85.114 77.908, 89.295 75.729 C 94.166 73.190, 94.501 73.105, 102.750 72.321 C 107.968 71.824, 109 71.418, 109 69.863 C 109 68.838, 108.534 68, 107.965 68 C 107.251 68, 107.251 67.399, 107.965 66.066 C 109.954 62.349, 109.208 54.670, 106.500 51 C 103.340 46.716, 103.324 43.021, 106.452 39.646 C 108.227 37.731, 109.897 37, 112.498 37 C 120.197 37, 123.936 46.155, 118.470 51.621 C 115.860 54.231, 115.354 57.554, 115.817 69.049 C 115.988 73.295, 116.238 73.684, 119.562 74.886 C 121.522 75.595, 126.058 78.395, 129.643 81.108 L 136.160 86.041 141.100 81.600 C 143.816 79.158, 148.168 76.140, 150.769 74.894 C 153.371 73.648, 160.402 69.582, 166.394 65.858 C 176.482 59.589, 177.442 59.196, 179.366 60.544 C 181.911 62.326, 187.690 62.378, 190.810 60.647 C 194.063 58.842, 196.987 54.038, 196.987 50.500 C 196.987 46.962, 194.063 42.158, 190.810 40.353 C 184.070 36.612, 174.616 41.293, 173.387 48.978 C 172.811 52.584, 172.193 53.099, 158.517 61.370 C 150.669 66.117, 143.968 70, 143.624 70 C 143.281 70, 143 59.180, 143 45.955 L 143 21.909 140.545 19.455 L 138.091 17 111.969 17 L 85.846 17 82.923 19.923 M 43.313 34.127 C 41.560 34.621, 39.164 36.248, 37.988 37.742 L 35.850 40.460 38.036 42.230 C 39.238 43.204, 39.748 44, 39.170 44 C 38.591 44, 37.804 43.492, 37.421 42.872 C 36.310 41.075, 34.774 44.697, 35.555 47.270 C 36.514 50.428, 40.966 56.139, 41.980 55.513 C 42.447 55.224, 43.057 55.553, 43.336 56.244 C 43.728 57.217, 43.860 57.206, 43.921 56.191 C 43.964 55.471, 44.450 55.160, 45 55.500 C 46.633 56.509, 46.137 53.823, 44.277 51.579 C 43.329 50.435, 43.194 50.063, 43.977 50.750 C 45.868 52.411, 47.067 52.337, 46.400 50.601 C 46.105 49.832, 46.281 48.945, 46.790 48.630 C 47.308 48.310, 47.598 49.562, 47.447 51.463 C 47.241 54.054, 47.514 54.740, 48.588 54.328 C 49.365 54.030, 50 53.375, 50 52.872 C 50 52.369, 51.125 51.445, 52.500 50.818 C 53.875 50.192, 55 49.056, 55 48.296 C 55 47.535, 55.777 47.045, 56.726 47.206 C 57.875 47.402, 58.465 46.831, 58.490 45.500 C 58.641 37.472, 51.211 31.904, 43.313 34.127 M 55.500 50 C 54.684 51.320, 55.880 53.192, 57.069 52.457 C 58.284 51.707, 58.276 49, 57.059 49 C 56.541 49, 55.840 49.450, 55.500 50 M 57.458 53.068 C 57.095 53.656, 56.205 53.909, 55.482 53.631 C 54.758 53.354, 53.892 53.838, 53.559 54.708 C 52.827 56.616, 55.812 60.213, 57.384 59.316 C 57.998 58.966, 58.166 59.048, 57.759 59.498 C 57.351 59.948, 57.523 60.925, 58.141 61.670 C 59.052 62.767, 59.573 62.785, 60.883 61.762 C 62.307 60.650, 62.342 60.702, 61.176 62.192 C 60.023 63.664, 60.396 64.474, 64.053 68.442 C 66.364 70.949, 68.846 73, 69.568 73 C 70.291 73, 71.203 73.520, 71.595 74.155 C 72.077 74.934, 71.852 75.040, 70.905 74.483 C 70.132 74.028, 70.357 74.634, 71.405 75.828 L 73.310 78 64.988 78 C 54.449 78, 55.058 78.974, 65.802 79.302 C 70.246 79.437, 74.246 79.947, 74.691 80.435 C 75.136 80.922, 75.013 81.043, 74.417 80.704 C 73.821 80.365, 73.333 80.723, 73.333 81.500 C 73.333 82.277, 73.712 82.678, 74.174 82.393 C 74.636 82.107, 75.299 82.614, 75.646 83.520 C 76.151 84.837, 76.448 84.900, 77.124 83.834 C 77.589 83.100, 77.969 82.050, 77.969 81.500 C 77.969 80.950, 77.533 81.175, 77 82 C 76.418 82.901, 76.025 83.025, 76.015 82.309 C 75.992 80.533, 78.112 79.563, 78.973 80.956 C 79.485 81.785, 79.895 81.509, 80.268 80.083 C 80.568 78.936, 80.446 78.224, 79.997 78.502 C 79.548 78.779, 78.453 78.727, 77.565 78.386 C 76.392 77.937, 76.236 77.420, 76.996 76.505 C 79.019 74.067, 72.714 63.770, 70.447 65.809 C 70.025 66.189, 70.028 65.897, 70.454 65.160 C 70.977 64.255, 69.257 61.903, 65.151 57.910 C 58.620 51.559, 58.455 51.455, 57.458 53.068 M 64.415 63.138 C 63.963 63.869, 64.124 64.041, 64.845 63.595 C 65.480 63.203, 66 63.284, 66 63.774 C 66 65.509, 64.664 65.968, 63.092 64.772 C 62.216 64.106, 62.563 64.755, 63.863 66.215 C 65.716 68.296, 66.503 68.613, 67.514 67.684 C 68.223 67.033, 68.397 66.350, 67.901 66.167 C 67.406 65.983, 67 65.222, 67 64.476 C 67 62.598, 65.294 61.716, 64.415 63.138 M 515.511 77.552 C 513.317 78.382, 509.857 80.686, 507.823 82.673 C 495.749 94.463, 495.417 124.524, 507.226 136.728 C 514.861 144.618, 535.251 145.513, 543.213 138.307 C 545.397 136.331, 545.569 130.717, 543.499 129 C 542.283 127.990, 541.066 128.156, 537.064 129.877 C 534.152 131.130, 530.013 132, 526.965 132 C 522.452 132, 521.382 131.582, 518.490 128.690 C 514.147 124.347, 512.679 118.594, 513.209 108 C 514.129 89.619, 522.036 83.088, 536.064 89.123 C 542.329 91.818, 544.247 90.693, 543.800 84.586 C 543.532 80.932, 543.077 80.290, 539.500 78.514 C 534.279 75.922, 521.208 75.398, 515.511 77.552 M 158.929 79.310 C 152.035 81.255, 145.635 85.422, 140.373 91.391 L 135.640 96.758 132.405 92.886 C 124.523 83.452, 117.583 79.824, 106.228 79.201 C 98.500 78.777, 97.534 78.955, 91.531 81.910 C 84.397 85.422, 78.385 91.508, 74.865 98.780 C 70.783 107.210, 72.375 122.045, 78.293 130.743 L 80.500 133.986 96.177 133.993 L 111.855 134 114.939 126.003 C 120.922 110.487, 122.830 106.821, 124.729 107.183 C 126.116 107.448, 127.588 111.529, 131.518 126.011 C 134.278 136.180, 136.978 144.393, 137.518 144.261 C 138.058 144.130, 140.750 137.830, 143.500 130.261 C 147.634 118.883, 148.870 116.447, 150.639 116.195 C 152.474 115.933, 153.313 117.180, 156.532 124.945 L 160.285 134 175.487 134 C 192.246 134, 191.520 134.254, 195.683 126.939 C 204.937 110.678, 197.683 88.498, 180.645 80.961 C 175.009 78.468, 164.693 77.684, 158.929 79.310 M 799.750 82.080 C 798.426 82.851, 798 84.411, 798 88.483 C 798 93.613, 797.870 93.882, 795.250 94.184 C 792.704 94.476, 792.500 94.834, 792.500 99 C 792.500 103.109, 792.727 103.526, 795.116 103.803 L 797.732 104.107 798.206 118.878 C 798.737 135.418, 799.824 138.740, 805.607 141.484 C 809.269 143.221, 815.659 143.460, 819.493 142.003 C 821.835 141.112, 822.082 140.552, 821.808 136.753 C 821.505 132.569, 821.438 132.498, 817.697 132.397 C 815.605 132.340, 813.355 131.757, 812.697 131.100 C 811.929 130.334, 811.382 125.281, 811.172 117.008 L 810.843 104.110 816.172 103.805 L 821.500 103.500 821.500 99 L 821.500 94.500 816.250 94.198 L 811 93.895 811 88.483 C 811 84.155, 810.612 82.863, 809.066 82.035 C 806.624 80.729, 802.032 80.751, 799.750 82.080 M 560.145 94.070 C 551.251 97.632, 546.692 105.897, 546.715 118.418 C 546.746 135.648, 554.823 143.682, 571.279 142.851 C 577.339 142.545, 579.450 141.968, 582.929 139.666 C 589.009 135.642, 592.205 128.339, 592.167 118.560 C 592.115 105.469, 588.746 98.607, 580.541 94.880 C 576.121 92.872, 564.308 92.403, 560.145 94.070 M 617.359 94.923 C 615.632 95.976, 613.918 97.324, 613.550 97.919 C 612.450 99.699, 611.160 99.147, 610.820 96.750 C 610.537 94.759, 609.924 94.500, 605.500 94.500 L 600.500 94.500 600.500 118 L 600.500 141.500 606.500 141.500 L 612.500 141.500 612.775 125.832 L 613.050 110.163 616.560 107.082 C 620.811 103.349, 624.368 103.106, 626.527 106.401 C 628.010 108.664, 628.764 118.122, 628.948 136.750 L 629 142 634.981 142 C 640.574 142, 641.004 141.833, 641.609 139.423 C 641.964 138.005, 642.052 129.568, 641.804 120.673 C 641.298 102.548, 640.094 98.248, 634.580 94.886 C 630.393 92.332, 621.576 92.351, 617.359 94.923 M 653.177 94.130 C 651.030 94.925, 651 95.239, 651.015 117.218 C 651.024 129.473, 651.403 140.087, 651.858 140.805 C 652.425 141.699, 654.544 142.013, 658.593 141.805 L 664.500 141.500 664.777 125.527 C 665.049 109.764, 665.088 109.518, 667.714 106.777 C 670.320 104.056, 674.190 103.197, 676.687 104.786 C 679.198 106.382, 680 111.669, 680 126.613 L 680 142.095 686.250 141.798 L 692.500 141.500 692.500 122.500 C 692.500 106.097, 692.254 103.050, 690.701 100.206 C 688.101 95.442, 683.538 93.008, 677.200 93.004 C 671.485 93, 667.658 94.507, 664.498 98.008 L 662.500 100.221 661.997 97.401 C 661.609 95.223, 660.795 94.438, 658.424 93.953 C 656.735 93.608, 654.374 93.687, 653.177 94.130 M 711.239 94.653 C 701.259 99.572, 696.498 114.212, 700.498 127.681 C 702.502 134.431, 705.330 137.779, 711.421 140.616 C 717.509 143.450, 726.951 143.798, 734.776 141.474 C 740.611 139.741, 741.486 138.790, 741.161 134.529 C 740.765 129.331, 739.326 128.794, 731.993 131.104 C 721.403 134.441, 714.246 132.113, 712.453 124.750 L 711.783 122 726.142 121.985 C 734.039 121.976, 741.125 121.574, 741.888 121.090 C 742.948 120.419, 743.162 118.418, 742.790 112.634 C 742.209 103.571, 739.221 98.174, 733.039 95.020 C 728.007 92.453, 716.109 92.252, 711.239 94.653 M 759.830 94.975 C 752.928 98.718, 748.995 107.232, 749.006 118.409 C 749.016 129.654, 752.466 136.782, 759.879 140.875 C 770.200 146.572, 789 141.412, 789 132.882 C 789 128.115, 782.729 125.211, 779.872 128.655 C 777.657 131.326, 772.630 132.995, 769.396 132.134 C 764.754 130.898, 762 125.821, 762 118.501 C 762 115.090, 762.499 110.868, 763.108 109.119 C 765.266 102.930, 773.441 101.413, 779.395 106.096 C 782.732 108.721, 786.031 108.219, 787.946 104.796 C 789.342 102.301, 789.298 101.875, 787.390 99.296 C 784.257 95.064, 780.352 93.583, 771.500 93.269 C 765.040 93.040, 762.794 93.368, 759.830 94.975 M 718.500 102.908 C 715.612 104.144, 713.238 107.120, 712.843 110 C 712.501 112.494, 712.522 112.501, 721.750 112.788 L 731 113.075 731 110.593 C 731 105.262, 723.611 100.719, 718.500 102.908 M 563.960 105.040 C 560.967 108.033, 560 111.348, 560 118.615 C 560 128.563, 563.078 133, 569.980 133 C 576.641 133, 579.708 126.405, 578.727 114.187 C 578.280 108.620, 577.772 107.201, 575.542 105.282 C 572.145 102.360, 566.753 102.247, 563.960 105.040 M 119.548 129.445 C 117.449 134.639, 115.080 139.139, 114.284 139.445 C 113.488 139.750, 107.248 140, 100.418 140 C 93.588 140, 88 140.341, 88 140.758 C 88 142.254, 134.550 188, 136.072 188 C 137.851 188, 184.595 141.262, 183.706 140.373 C 183.386 140.053, 177.317 139.857, 170.219 139.938 C 155.713 140.103, 156.221 140.335, 153.377 132.250 C 152.362 129.363, 151.248 127, 150.902 127 C 150.556 127, 148.120 132.963, 145.488 140.250 C 140.133 155.076, 138.366 159, 137.046 159 C 134.711 159, 133.174 155.022, 129 138.170 C 126.525 128.178, 124.245 120.002, 123.933 120.001 C 123.621 120.001, 121.648 124.250, 119.548 129.445" stroke="none" fill="#3ab8ae" fill-rule="evenodd"/></svg>